<svg width="172" height="88" viewBox="0 0 172 88" fill="none" xmlns="http://www.w3.org/2000/svg">
<path fill-rule="evenodd" clip-rule="evenodd" d="M60.6764 87.24C55.7964 87.24 51.3164 86.16 47.2364 84C43.2364 81.84 40.0364 78.84 37.6364 75C35.3164 71.16 34.1564 66.6 34.1564 61.32V24.72C34.1564 23.44 33.8364 22.28 33.1964 21.24C32.5564 20.2 31.7164 19.36 30.6764 18.72C29.6364 18.08 28.4764 17.76 27.1964 17.76C25.9164 17.76 24.7564 18.08 23.7164 18.72C22.6764 19.36 21.8364 20.2 21.1964 21.24C20.6364 22.28 20.3564 23.44 20.3564 24.72V85.8H0.676392V26.16C0.676392 21.12 1.79639 16.68 4.03639 12.84C6.35639 8.99998 9.51639 5.95998 13.5164 3.71999C17.5964 1.47999 22.1564 0.359985 27.1964 0.359985C32.3164 0.359985 36.8764 1.47999 40.8764 3.71999C44.8764 5.95998 48.0364 8.99998 50.3564 12.84C52.6764 16.68 53.8364 21.12 53.8364 26.16V62.76C53.8364 64.12 54.1564 65.32 54.7964 66.36C55.4364 67.4 56.2364 68.24 57.1964 68.88C58.2364 69.44 59.3564 69.72 60.5564 69.72C61.8364 69.72 62.9964 69.44 64.0364 68.88C65.1564 68.24 66.0364 67.4 66.6764 66.36C67.3164 65.32 67.6364 64.12 67.6364 62.76V26.16C67.6364 21.12 68.7964 16.68 71.1164 12.84C73.4364 8.99998 76.5964 5.95998 80.5964 3.71999C84.6764 1.47999 89.1964 0.359985 94.1564 0.359985C99.2764 0.359985 103.796 1.47999 107.716 3.71999C111.278 5.71446 114.174 8.34317 116.403 11.6061C118.417 8.9925 120.897 6.87047 123.844 5.24C127.604 3.08 131.764 2 136.324 2H171.724V18.8H139.444C137.924 18.8 136.524 19.16 135.244 19.88C133.964 20.6 132.924 21.56 132.124 22.76C131.404 23.96 131.044 25.36 131.044 26.96C131.044 28.48 131.404 29.88 132.124 31.16C132.924 32.36 133.964 33.32 135.244 34.04C136.524 34.68 137.924 35 139.444 35H171.724V51.8H140.044C138.364 51.8 136.844 52.2 135.484 53C134.124 53.8 133.044 54.84 132.244 56.12C131.444 57.4 131.044 58.88 131.044 60.56C131.044 62.16 131.444 63.64 132.244 65C133.044 66.28 134.124 67.28 135.484 68C136.844 68.72 138.364 69.08 140.044 69.08H171.724V86H136.564L120.676 86H101H100.996V24.6C100.996 23.32 100.676 22.2 100.036 21.24C99.4764 20.2 98.6764 19.36 97.6364 18.72C96.5964 18.08 95.4364 17.76 94.1564 17.76C92.9564 17.76 91.7964 18.08 90.6764 18.72C89.6364 19.36 88.7964 20.2 88.1564 21.24C87.5164 22.2 87.1964 23.32 87.1964 24.6V61.32C87.1964 66.6 85.9964 71.16 83.5964 75C81.1964 78.84 77.9964 81.84 73.9964 84C69.9964 86.16 65.5564 87.24 60.6764 87.24ZM117.778 16.7566C117.363 15.5364 115.637 15.5364 115.222 16.7566L113.287 22.4438C113.152 22.8405 112.841 23.1521 112.444 23.2871L106.757 25.2219C105.536 25.6371 105.536 27.3629 106.757 27.7781L112.444 29.7129C112.841 29.8479 113.152 30.1595 113.287 30.5562L115.222 36.2434C115.637 37.4636 117.363 37.4636 117.778 36.2434L119.713 30.5562C119.848 30.1595 120.159 29.8479 120.556 29.7129L126.243 27.7781C127.464 27.3629 127.464 25.6371 126.243 25.2219L120.556 23.2871C120.159 23.1521 119.848 22.8405 119.713 22.4438L117.778 16.7566ZM115.222 39.7566C115.637 38.5364 117.363 38.5364 117.778 39.7566L119.713 45.4438C119.848 45.8405 120.159 46.1521 120.556 46.2871L126.243 48.2219C127.464 48.6371 127.464 50.3629 126.243 50.7781L120.556 52.7129C120.159 52.8479 119.848 53.1595 119.713 53.5562L117.778 59.2434C117.363 60.4636 115.637 60.4636 115.222 59.2434L113.287 53.5562C113.152 53.1595 112.841 52.8479 112.444 52.7129L106.757 50.7781C105.536 50.3629 105.536 48.6371 106.757 48.2219L112.444 46.2871C112.841 46.1521 113.152 45.8405 113.287 45.4438L115.222 39.7566ZM117.778 62.7566C117.363 61.5364 115.637 61.5364 115.222 62.7566L113.287 68.4438C113.152 68.8405 112.841 69.1521 112.444 69.2871L106.757 71.2219C105.536 71.6371 105.536 73.3629 106.757 73.7781L112.444 75.7129C112.841 75.8479 113.152 76.1595 113.287 76.5562L115.222 82.2434C115.637 83.4636 117.363 83.4636 117.778 82.2434L119.713 76.5562C119.848 76.1595 120.159 75.8479 120.556 75.7129L126.243 73.7781C127.464 73.3629 127.464 71.6371 126.243 71.2219L120.556 69.2871C120.159 69.1521 119.848 68.8405 119.713 68.4438L117.778 62.7566Z" fill="#1668BD"/>
</svg>
